<svg xmlns="http://www.w3.org/2000/svg" width="1385.273" height="964.153" viewBox="0 0 1385.273 964.153">
  <g id="Hands" transform="translate(-793.225 -562.644)">
    <g id="_x35__HAND__x26__CAP" transform="translate(1821.058 663.591)">
      <g id="HAND_8_" transform="translate(17.856 378.867)">
        <g id="DRESS_6_" transform="translate(71.667 268.796)">
          <path id="Path_29" data-name="Path 29" d="M3748.005,2500.007v133.878H3546.6l39.242-205.585c-1.258,8.116,23.862,23.334,58.235,38.593,12.337,5.478,26.094,10.916,40.784,16.07,23.7,8.36,45.532,14.041,63.145,17.044Z" transform="translate(-3546.6 -2418.343)" fill="#9a3b82"/>
          <path id="Path_30" data-name="Path 30" d="M3808.587,2445.172v35.833c-17.612-3-39.4-8.644-63.185-17-56.043-19.682-99.181-43.99-96.746-54.906.041-.163.081-.325.122-.447,3.773-10.673,53.4-3.287,110.219,16.638,18.261,6.412,34.738,13.027,48.576,19.4C3807.9,2444.847,3808.223,2445.01,3808.587,2445.172Z" transform="translate(-3607.183 -2403.765)" fill="#ffcf2d"/>
        </g>
        <g id="DIPLOMA_1_">
          <path id="Path_31" data-name="Path 31" d="M3662.317,1741.4a35.53,35.53,0,0,0-35.55,35.509v97.314a35.521,35.521,0,0,1-35.508,35.509H3448.9a35.5,35.5,0,0,0,35.509-35.509v-97.314a35.5,35.5,0,0,1,35.509-35.509Z" transform="translate(-3416.881 -1741.4)" fill="#fff" stroke="#ffcf2d" stroke-miterlimit="10" stroke-width="5"/>
          <g id="Group_14" data-name="Group 14" transform="translate(92.525 50.361)">
            <rect id="Rectangle_5" data-name="Rectangle 5" width="90.659" height="84.125" fill="#fff" stroke="#ffcf2d" stroke-miterlimit="10" stroke-width="5"/>
            <line id="Line_1" data-name="Line 1" x1="90.618" transform="translate(0 12.012)" fill="none" stroke="#ffcf2d" stroke-miterlimit="10" stroke-width="5"/>
            <line id="Line_2" data-name="Line 2" x1="90.618" transform="translate(0 24.024)" fill="none" stroke="#ffcf2d" stroke-miterlimit="10" stroke-width="5"/>
            <line id="Line_3" data-name="Line 3" x1="90.618" transform="translate(0 36.077)" fill="none" stroke="#ffcf2d" stroke-miterlimit="10" stroke-width="5"/>
            <line id="Line_4" data-name="Line 4" x1="90.618" transform="translate(0 48.089)" fill="none" stroke="#ffcf2d" stroke-miterlimit="10" stroke-width="5"/>
            <line id="Line_5" data-name="Line 5" x1="90.618" transform="translate(0 60.141)" fill="none" stroke="#ffcf2d" stroke-miterlimit="10" stroke-width="5"/>
            <line id="Line_6" data-name="Line 6" x1="90.618" transform="translate(0 72.154)" fill="none" stroke="#ffcf2d" stroke-miterlimit="10" stroke-width="5"/>
          </g>
          <path id="Path_32" data-name="Path 32" d="M3887.2,1776.909a35.186,35.186,0,1,1,70.368,0Z" transform="translate(-3677.313 -1741.4)" fill="#66b0f0" stroke="#ffcf2d" stroke-miterlimit="10" stroke-width="5"/>
          <path id="Path_33" data-name="Path 33" d="M3544.54,2126.254H3402.3A35.528,35.528,0,0,1,3370,2104.3h142.116A35.652,35.652,0,0,0,3544.54,2126.254Z" transform="translate(-3370 -1957.03)" fill="#ffcf2d"/>
          <g id="Group_20" data-name="Group 20" transform="translate(82.055 18.14)">
            <g id="Group_15" data-name="Group 15" transform="translate(0 9.415)">
              <path id="Path_34" data-name="Path 34" d="M3588.6,1822.448h-16.4V1809.3h7.711v7.3a.362.362,0,0,0,.162.325l.041.041Z" transform="translate(-3572.2 -1809.3)" fill="#fe5244"/>
            </g>
            <g id="Group_16" data-name="Group 16" transform="translate(8.603 13.919)">
              <path id="Path_35" data-name="Path 35" d="M3607.563,1820.44v1.745c0,.324-.041.649-.041.974,0,.081-.04.2-.04.284-.041.163-.041.325-.081.487a6.4,6.4,0,0,1-3.449,4.748l-.365.122a3.809,3.809,0,0,1-.65.162c-.081,0-.162.04-.243.04l-9.293-6.047c.082-1.42.974-2.557,2.029-2.557h12.134Z" transform="translate(-3593.4 -1820.4)" fill="#fe5244"/>
            </g>
            <g id="Group_17" data-name="Group 17" transform="translate(96.908 9.415)">
              <path id="Path_36" data-name="Path 36" d="M3827.395,1809.3v13.148H3811l8.44-5.478.041-.041h0c.041-.041.041-.041.081-.041,0-.04.041-.04.041-.081a.04.04,0,0,1,.041-.041c0-.041,0-.041.041-.041h0V1809.3Z" transform="translate(-3811 -1809.3)" fill="#fe5244"/>
            </g>
            <g id="Group_18" data-name="Group 18" transform="translate(90.618 13.999)">
              <path id="Path_37" data-name="Path 37" d="M3809.663,1823.115l-9.293,6.047-.73-.122c-.081-.04-.163-.04-.243-.081-.122-.041-.2-.081-.325-.122-.081-.041-.2-.081-.284-.122a6.376,6.376,0,0,1-2.841-3.693,4.959,4.959,0,0,1-.2-.73c-.041-.081-.041-.2-.082-.325a10.49,10.49,0,0,1-.162-1.623V1820.6h12.174C3808.689,1820.558,3809.582,1821.694,3809.663,1823.115Z" transform="translate(-3795.5 -1820.597)" fill="#fe5244"/>
            </g>
            <g id="Group_19" data-name="Group 19" transform="translate(8.562)">
              <path id="Path_38" data-name="Path 38" d="M3689.518,1788.859V1800.3c-.082-.081-.162-.2-.243-.284a4.344,4.344,0,0,0-.487-.406,2.569,2.569,0,0,0-1.3-.406h-92.161a2.347,2.347,0,0,0-1.3.406,4.3,4.3,0,0,0-.487.406,1.809,1.809,0,0,0-.244.284v-11.444c0-1.542.893-2.759,2.029-2.759h92.161C3688.585,1786.1,3689.518,1787.358,3689.518,1788.859Z" transform="translate(-3593.3 -1786.1)" fill="#fe5244"/>
            </g>
          </g>
        </g>
        <g id="HAND_9_" transform="translate(145.93 91.673)">
          <path id="Path_39" data-name="Path 39" d="M3856.741,2062.585v159.079h-.041c-17.612-3-39.4-8.644-63.185-17-14.691-5.154-28.448-10.632-40.784-16.07l6.615-36.929,11.241-62.7C3735.322,2077.925,3729.6,2044,3729.6,2044h28.366a35.5,35.5,0,0,0,35.509-35.509V1996.8h-18.22c-12.783,0-23.172-12.58-23.172-25.363V1967.3h40.5a23.832,23.832,0,0,1,19.073,9.537l29.624,39.567A76.483,76.483,0,0,1,3856.741,2062.585Z" transform="translate(-3729.6 -1967.3)" fill="#a0505a"/>
          <path id="Path_40" data-name="Path 40" d="M3890.61,2455.769V2491.6h-.041c-17.612-3-39.4-8.644-63.185-17-14.69-5.154-28.448-10.632-40.784-16.07l6.615-36.929c14.609,3.571,30.842,8.4,47.724,14.325,18.261,6.412,34.738,13.027,48.535,19.4A7.368,7.368,0,0,1,3890.61,2455.769Z" transform="translate(-3763.468 -2237.239)" fill="#73325a"/>
          <path id="Path_41" data-name="Path 41" d="M3829.032,1996.8h-19.56c-12.783,0-23.172-12.58-23.172-25.363V1967.3h42.732Z" transform="translate(-3763.291 -1967.3)" fill="#a0505a"/>
          <path id="Path_42" data-name="Path 42" d="M3861.3,2137.4s28.2,10.592,30.76,46.993" transform="translate(-3807.854 -2068.371)" fill="none" stroke="#73325a" stroke-miterlimit="10" stroke-width="5"/>
          <line id="Line_7" data-name="Line 7" x2="19.195" transform="translate(41.068 122.515)" fill="none" stroke="#73325a" stroke-miterlimit="10" stroke-width="5"/>
        </g>
      </g>
      <g id="CAP_6_" transform="translate(0)">
        <path id="Path_43" data-name="Path 43" d="M3786.7,1129.064l12.864-8.522a26.324,26.324,0,0,1,40.784,19.885l2.8,35.427a26.337,26.337,0,0,0,39.688,20.575l8.116-4.829" transform="translate(-3599.742 -991.006)" fill="none" stroke="#ffcf2d" stroke-miterlimit="10" stroke-width="6"/>
        <path id="Path_44" data-name="Path 44" d="M3326,823.7l165.288,95.934,83.232,186.877-95.487-64.322L3375.266,920.608Z" transform="translate(-3326 -817.248)" fill="#9a3b82"/>
        <path id="Path_45" data-name="Path 45" d="M3327.1,807.8l168.777,98,85.018,190.813" transform="translate(-3326.654 -807.8)" fill="none" stroke="#ffcf2d" stroke-miterlimit="10" stroke-width="6"/>
        <ellipse id="Ellipse_2" data-name="Ellipse 2" cx="18.302" cy="81.771" rx="18.302" ry="81.771" transform="translate(31.82 115.913) rotate(-40.173)" fill="#fff"/>
        <ellipse id="Ellipse_3" data-name="Ellipse 3" cx="17.937" cy="80.189" rx="17.937" ry="80.189" transform="translate(29.448 120.091) rotate(-40.173)" fill="#fff" stroke="#ffcf2d" stroke-miterlimit="10" stroke-width="5"/>
        <path id="Path_46" data-name="Path 46" d="M3559.357,1155.173l-15.745,13.27c2.922-2.476,2.272-8.725-1.258-17.45-5.8-14.366-19.4-35.346-37.5-56.854-18.14-21.468-36.564-38.39-49.752-46.506-7.995-4.951-14.082-6.655-17-4.18l15.745-13.27c7.71-6.534,38.958,14.812,68.1,49.347S3567.108,1148.68,3559.357,1155.173Z" transform="translate(-3392.608 -939.24)" fill="#ffcf2d"/>
        <path id="Path_47" data-name="Path 47" d="M4099.471,1206.541c4.464-2.151,8.807-4.058,12.986-5.641a36.038,36.038,0,0,1,6.291,9.05,34.863,34.863,0,0,1,3.206,10.511c-3.855,2.273-8.035,4.545-12.458,6.7-22.2,10.754-42.408,14.853-45.167,9.171C4061.527,1230.605,4077.273,1217.295,4099.471,1206.541Z" transform="translate(-3764.513 -1041.375)" fill="#ffcf2d"/>
        <circle id="Ellipse_4" data-name="Ellipse 4" cx="4.91" cy="4.91" r="4.91" transform="translate(290.846 192.842)" fill="none" stroke="#9a3b82" stroke-miterlimit="10" stroke-width="6"/>
      </g>
    </g>
    <g id="_x34__HAND__x26__CAP" transform="translate(1505.011 895.838)">
      <g id="DRESS_5_" transform="translate(126.289 431.805)">
        <path id="Path_48" data-name="Path 48" d="M3054.124,2489.872v171.821H2858.4l25.079-186.593c0,7.548,38.187,16.962,85.3,21.021C3015.9,2500.22,3054.124,2497.42,3054.124,2489.872Z" transform="translate(-2858.4 -2462.541)" fill="#66b0f0"/>
        <path id="Path_49" data-name="Path 49" d="M3090.962,2467.058c0,7.548-37.862,10.348-84.531,6.25s-84.531-13.514-84.531-21.021h0c0-7.548,37.862-10.348,84.531-6.25C3053.14,2450.1,3090.962,2459.51,3090.962,2467.058Z" transform="translate(-2896.131 -2444.15)" fill="#3fb1b5"/>
      </g>
      <g id="CAP_5_" transform="translate(0 0)">
        <path id="Path_50" data-name="Path 50" d="M3244.2,1562l11.85,7.67c11.85,9.171-4.545,50.158-36.6,91.47-32.059,41.352-67.649,67.405-79.5,58.234l-5.844-5.519" transform="translate(-2895.928 -1488.183)" fill="none" stroke="#66b0f0" stroke-miterlimit="10" stroke-width="6"/>
        <path id="Path_51" data-name="Path 51" d="M2999.9,1646.435l134.527-123.124,47.034-143.211-143.577,130.469Z" transform="translate(-2816.188 -1380.1)" fill="#66b0f0"/>
        <path id="Path_52" data-name="Path 52" d="M2983,1663.983l146.417-134,47.764-145.484" transform="translate(-2806.147 -1382.714)" fill="none" stroke="#fe5244" stroke-linecap="round" stroke-miterlimit="10" stroke-width="6"/>
        <path id="Path_53" data-name="Path 53" d="M2888.709,1732l-127.75,122.19a8.749,8.749,0,0,1-14.609-8.116l3.571-17.328a8.75,8.75,0,0,0-13.717-8.847l-42.2,30.72" transform="translate(-2634.427 -1589.195)" fill="none" stroke="#fe5244" stroke-miterlimit="10" stroke-width="6"/>
        <path id="Path_54" data-name="Path 54" d="M2572.4,2075.2c-3.774,3.165-7.548,6.087-11.2,8.644a35.758,35.758,0,0,1-8.319-7.224,35.324,35.324,0,0,1-5.682-9.415c3.166-3.165,6.656-6.371,10.429-9.577,18.87-15.867,37.457-24.836,41.555-19.966C2603.243,2042.528,2591.271,2059.329,2572.4,2075.2Z" transform="translate(-2547.2 -1770.025)" fill="#ffcf2d"/>
        <circle id="Ellipse_5" data-name="Ellipse 5" cx="4.91" cy="4.91" r="4.91" transform="translate(50.727 259.477)" fill="none" stroke="#fe5244" stroke-miterlimit="10" stroke-width="6"/>
      </g>
      <g id="HAND_7_" transform="translate(139.843 246.749)">
        <path id="Path_55" data-name="Path 55" d="M3012.286,2071.191v132.7c-7.508-.324-15.5-.811-23.74-1.542-30.4-2.638-57.017-7.589-71.91-12.783l2.232-14.69,7.467-49.306h-9.658a24.853,24.853,0,0,1-24.876-24.876v-48.86a39.7,39.7,0,0,1,9.861-26.216l31.775-36.32a3.407,3.407,0,0,1,5.966,2.232v49.387a24.823,24.823,0,0,1-5.966,16.151l-2.841,3.328h34.494a6.2,6.2,0,0,0,5.114-9.7,246.832,246.832,0,0,1-15.177-25.282c-10.592-20.25,7.792-31.572,7.792-31.572l42.083,54.582A38.9,38.9,0,0,1,3012.286,2071.191Z" transform="translate(-2891.8 -1988.136)" fill="#ffcf2d"/>
        <path id="Path_56" data-name="Path 56" d="M2996.206,1990v52.025a24.822,24.822,0,0,1-5.965,16.151l-2.841,3.328" transform="translate(-2948.604 -1989.243)" fill="none" stroke="#fff" stroke-linecap="round" stroke-miterlimit="10" stroke-width="5"/>
        <g id="Group_21" data-name="Group 21" transform="translate(15.989 7.615)">
          <line id="Line_8" data-name="Line 8" x1="22.807" y2="25.607" transform="translate(0 64.605)" fill="none" stroke="#fff" stroke-linecap="round" stroke-miterlimit="10" stroke-width="5"/>
          <path id="Path_57" data-name="Path 57" d="M2962.872,2062.5a24.822,24.822,0,0,1-5.965,16.151l-2.841,3.328-22.766,25.566" transform="translate(-2931.26 -2039.937)" fill="none" stroke="#fff" stroke-linecap="round" stroke-miterlimit="10" stroke-width="5"/>
          <path id="Path_58" data-name="Path 58" d="M2962.872,2006.9a24.822,24.822,0,0,1-5.965,16.151l-2.841,3.328-22.766,25.566" transform="translate(-2931.26 -2006.9)" fill="none" stroke="#fff" stroke-linecap="round" stroke-miterlimit="10" stroke-width="5"/>
          <line id="Line_9" data-name="Line 9" x2="17.491" transform="translate(18.546 131.159)" fill="none" stroke="#fff" stroke-linecap="round" stroke-miterlimit="10" stroke-width="5"/>
        </g>
        <path id="Path_59" data-name="Path 59" d="M3048.65,2448.612v26.216c-7.508-.325-15.5-.812-23.74-1.542-30.4-2.637-57.017-7.588-71.91-12.783l2.232-14.691c15.259-2.232,40.784-2.354,69.719.162C3033.148,2446.745,3041.1,2447.6,3048.65,2448.612Z" transform="translate(-2928.164 -2259.071)" fill="#fe5244"/>
      </g>
    </g>
    <g id="_x33__HAND__x26__CAP" transform="translate(1342.605 565.1)">
      <g id="HAND_4_" transform="translate(0 332.767)">
        <g id="DRESS_4_" transform="translate(0 382.803)">
          <path id="Path_60" data-name="Path 60" d="M2373.322,2606.315H2147V2381.94c0,9.577,37.213,17.328,83.151,17.328s83.151-7.751,83.151-17.328v-.041Z" transform="translate(-2147 -2360.189)" fill="#3fb1b5"/>
          <path id="Path_61" data-name="Path 61" d="M2314.417,2345.688h0c0,9.618-36.807,17.369-82.258,17.369s-82.259-7.751-82.259-17.328v-.041c.122-9.537,36.888-17.288,82.259-17.288S2314.335,2336.151,2314.417,2345.688Z" transform="translate(-2148.723 -2328.4)" fill="#66b0f0"/>
        </g>
        <g id="HAND_6_" transform="translate(5.641 205.869)">
          <path id="HAND_5_" d="M2320.953,2086.784c-.284,9.5-37.01,17.207-82.258,17.207-8.725,0-17.085-.284-24.958-.812V2019.7H2170.8a9.89,9.89,0,0,1-9.9-9.9v-6.7a9.894,9.894,0,0,0,0-15.015v-6.7a9.8,9.8,0,0,0,0-13.635v-6.7a10.013,10.013,0,0,1,2.882-7.021,9.845,9.845,0,0,1-2.882-6.98v-12.134a9.889,9.889,0,0,1,9.9-9.9h54.825c1.826-1.055,4.789-4.789-.244-6.98l-11.769-2.76c-9.334-4.667-15.259-12.418-15.259-22.888h41.393a16.508,16.508,0,0,1,15.5,10.916l64.687,180.587Z" transform="translate(-2160.9 -1892.4)" fill="#e57281"/>
          <path id="Path_62" data-name="Path 62" d="M2398.519,2345.99l-.2-.2c0,9.577-36.807,17.328-82.258,17.328-8.725,0-17.084-.284-24.958-.812v-32.992c7.873-.528,16.273-.812,24.958-.812,40.987,0,74.994,6.331,81.244,14.569h0A21.817,21.817,0,0,1,2398.519,2345.99Z" transform="translate(-2238.263 -2151.525)" fill="#9a3b82"/>
        </g>
        <g id="WINEGLASS" transform="translate(6.168)">
          <path id="Path_63" data-name="Path 63" d="M2227.867,1694.8v32.911a32.384,32.384,0,1,1-64.768,0V1694.8c0,8.035,14.487,14.528,32.384,14.528S2227.867,1702.835,2227.867,1694.8Z" transform="translate(-2162.735 -1569.12)" fill="#fff"/>
          <ellipse id="Ellipse_6" data-name="Ellipse 6" cx="32.384" cy="14.528" rx="32.384" ry="14.528" transform="translate(0.365 111.152)" fill="#ffcf2d"/>
          <path id="Path_64" data-name="Path 64" d="M2227.867,1556.2v89.116a32.387,32.387,0,0,1-16.232,28.082h-.041a32.377,32.377,0,0,1-32.181.041c-.041,0-.041-.041-.081-.041a32.387,32.387,0,0,1-16.232-28.082V1556.2Z" transform="translate(-2162.735 -1486.765)" fill="none" stroke="#ffcf2d" stroke-miterlimit="10" stroke-width="6"/>
          <ellipse id="Ellipse_7" data-name="Ellipse 7" cx="32.749" cy="14.528" rx="32.749" ry="14.528" transform="translate(0 54.907)" fill="#fff" stroke="#ffcf2d" stroke-miterlimit="10" stroke-width="5"/>
          <circle id="Ellipse_8" data-name="Ellipse 8" cx="4.789" cy="4.789" r="4.789" transform="translate(27.961 62.049)" fill="#ffcf2d"/>
          <circle id="Ellipse_9" data-name="Ellipse 9" cx="4.22" cy="4.22" r="4.22" transform="translate(17.978 160.986)" fill="#fff" stroke="#ffcf2d" stroke-miterlimit="10" stroke-width="5"/>
          <circle id="Ellipse_10" data-name="Ellipse 10" cx="3.49" cy="3.49" r="3.49" transform="translate(44.031 122.19)" fill="#fff"/>
          <circle id="Ellipse_11" data-name="Ellipse 11" cx="3.49" cy="3.49" r="3.49" transform="translate(10.267 148.365)" fill="#ffcf2d"/>
          <path id="Path_65" data-name="Path 65" d="M2226.895,2014.265h-62.252a1.075,1.075,0,0,1-.487-2.029l21.752-8.238a8.835,8.835,0,0,0,5.681-8.238v-129.7a24.313,24.313,0,0,0-11.891-21.021,32.379,32.379,0,0,0,32.181-.041,24.215,24.215,0,0,0-11.931,21.021v129.7a8.835,8.835,0,0,0,5.681,8.238l21.751,8.238A1.1,1.1,0,0,1,2226.895,2014.265Z" transform="translate(-2163.019 -1658.367)" fill="#fff" stroke="#ffcf2d" stroke-miterlimit="10" stroke-width="5"/>
          <circle id="Ellipse_12" data-name="Ellipse 12" cx="5.519" cy="5.519" r="5.519" transform="translate(4.18 9.658)" fill="#ffcf2d"/>
          <circle id="Ellipse_13" data-name="Ellipse 13" cx="4.789" cy="4.789" r="4.789" transform="translate(42.732 20.007)" fill="#fff" stroke="#ffcf2d" stroke-miterlimit="10" stroke-width="5"/>
          <circle id="Ellipse_14" data-name="Ellipse 14" cx="3.49" cy="3.49" r="3.49" transform="translate(20.575 41.271)" fill="#fff" stroke="#ffcf2d" stroke-miterlimit="10" stroke-width="5"/>
          <circle id="Ellipse_15" data-name="Ellipse 15" cx="2.881" cy="2.881" r="2.881" transform="translate(19.357)" fill="#ffcf2d"/>
        </g>
        <g id="FINGERS_1_" transform="translate(5.641 238.537)">
          <path id="Path_66" data-name="Path 66" d="M2235.895,2004.9v81.69H2170.8a9.89,9.89,0,0,1-9.9-9.9v-6.7a9.894,9.894,0,0,0,0-15.015v-6.7a9.8,9.8,0,0,0,0-13.635v-6.7a10.013,10.013,0,0,1,2.882-7.021,9.845,9.845,0,0,1-2.882-6.98v-9.009h74.994Z" transform="translate(-2160.9 -1991.914)" fill="#e57281"/>
          <g id="Group_22" data-name="Group 22" transform="translate(1.136)">
            <path id="Path_67" data-name="Path 67" d="M2163.7,2126.9a11.24,11.24,0,0,0,11.241,11.241h52.675a11.24,11.24,0,0,0,11.241-11.241" transform="translate(-2163.7 -2064.405)" fill="none" stroke="#9a3b82" stroke-linecap="round" stroke-miterlimit="10" stroke-width="5"/>
            <path id="Path_68" data-name="Path 68" d="M2163.7,2077a11.24,11.24,0,0,0,11.241,11.241h52.675A11.24,11.24,0,0,0,2238.856,2077" transform="translate(-2163.7 -2034.755)" fill="none" stroke="#9a3b82" stroke-linecap="round" stroke-miterlimit="10" stroke-width="5"/>
            <path id="Path_69" data-name="Path 69" d="M2163.7,2027.1a11.24,11.24,0,0,0,11.241,11.241h52.675a11.24,11.24,0,0,0,11.241-11.241" transform="translate(-2163.7 -2005.105)" fill="none" stroke="#9a3b82" stroke-linecap="round" stroke-miterlimit="10" stroke-width="5"/>
            <path id="Path_70" data-name="Path 70" d="M2190.1,2076.869h53.2a11.24,11.24,0,0,0,11.241-11.241V1989.7" transform="translate(-2179.386 -1982.882)" fill="none" stroke="#9a3b82" stroke-linecap="round" stroke-miterlimit="10" stroke-width="5"/>
            <path id="Path_71" data-name="Path 71" d="M2213.644,1979.393h-5.4a3.256,3.256,0,0,0-3.247,3.246h0a3.256,3.256,0,0,0,3.247,3.247h30.192a5.932,5.932,0,0,0,5.925-5.925h0a7.066,7.066,0,0,1,7.061-7.061h4.91a7.066,7.066,0,0,1,7.061,7.061v13.148" transform="translate(-2188.24 -1972.9)" fill="none" stroke="#9a3b82" stroke-linecap="round" stroke-miterlimit="10" stroke-width="5"/>
          </g>
        </g>
      </g>
      <g id="CAP_4_" transform="translate(96.868)">
        <path id="Path_72" data-name="Path 72" d="M2708.446,734.589l-135.1,138.545L2417.6,701.434l170-119.634Z" transform="translate(-2404.655 -575.023)" fill="#3fb1b5"/>
        <path id="Path_73" data-name="Path 73" d="M2549.121,869.866,2385.7,690.74,2564.907,565.1" transform="translate(-2385.7 -565.1)" fill="none" stroke="#ffcf2d" stroke-miterlimit="10" stroke-width="6"/>
        <path id="Path_74" data-name="Path 74" d="M2794.9,938.014l10.186-1.5a30.646,30.646,0,0,1,34.779,25.85l8.887,60.547a30.63,30.63,0,0,0,43.544,23.172l42.488-20.331" transform="translate(-2628.841 -785.591)" fill="none" stroke="#ffcf2d" stroke-miterlimit="10" stroke-width="6"/>
        <path id="Path_75" data-name="Path 75" d="M3207.065,1165.881c4.342,2.354,8.441,4.789,12.174,7.224a36.11,36.11,0,0,1-3.652,10.389,34.954,34.954,0,0,1-6.655,8.766c-4.1-1.786-8.4-3.855-12.743-6.209-21.711-11.728-36.848-25.729-33.845-31.288S3185.354,1154.153,3207.065,1165.881Z" transform="translate(-2846.946 -914.115)" fill="#ffcf2d"/>
        <circle id="Ellipse_16" data-name="Ellipse 16" cx="4.91" cy="4.91" r="4.91" transform="translate(305.861 234.114)" fill="none" stroke="#66b0f0" stroke-miterlimit="10" stroke-width="6"/>
      </g>
    </g>
    <g id="_x32__HAND__x26__CAP" transform="translate(1070.304 737.692)">
      <g id="HAND_2_" transform="translate(0 441.189)">
        <g id="DRESS_3_" transform="translate(21.12 183.476)">
          <path id="Path_76" data-name="Path 76" d="M1704.476,2560.3v152.018H1528.8v-89.563c3.815,9.983,48.535,3.612,96.259-14.65C1667.994,2591.669,1701.149,2571.46,1704.476,2560.3Z" transform="translate(-1528.494 -2547.879)" fill="#fe5244"/>
          <path id="Path_77" data-name="Path 77" d="M1704.027,2537.691c-3.368,11.16-36.483,31.369-79.458,47.8-47.683,18.262-92.4,24.633-96.259,14.65s34.7-32.587,82.421-50.849c47.683-18.262,89.482-24.958,93.3-14.975A4.806,4.806,0,0,1,1704.027,2537.691Z" transform="translate(-1528.044 -2529.693)" fill="#66b0f0"/>
        </g>
        <g id="HAND_3_">
          <path id="Path_78" data-name="Path 78" d="M1635.89,2168.243v128.8h0l-9.7,4.91c-9.821,4.789-20.818,9.537-32.506,14-21.467,8.238-42.367,14.042-59.167,17.044l9.658-37.943,15.746-61.927a24.955,24.955,0,0,1-19.276-9.09L1476,2150.509c11.079-10.1,27.636,3.652,27.636,3.652l-6.209-31.694a24.234,24.234,0,0,1,5.884-20.94l19.641-21.549a7.386,7.386,0,0,1,12.54,2.922l13.96,48.17s34.656,26.459,41.15,26.459c7.345,0,9.9-5.965-3.815-25.566-10.308-14.731,0-25.485,0-25.485l33.561,28.245A43.945,43.945,0,0,1,1635.89,2168.243Z" transform="translate(-1476 -2077.573)" fill="#fff" stroke="#ffcf2d" stroke-miterlimit="10" stroke-width="5"/>
          <g id="Group_23" data-name="Group 23" transform="translate(24.389 12.058)">
            <path id="Path_79" data-name="Path 79" d="M1614.793,2178.39l-24.552-19.642-13.432-46.344a6.892,6.892,0,0,0-11.809-2.8" transform="translate(-1553.272 -2107.286)" fill="none" stroke="#ffcf2d" stroke-miterlimit="10" stroke-width="5"/>
            <path id="Path_80" data-name="Path 80" d="M1581.551,2207.044l-21.346-17.369-12.7-43.868a6.7,6.7,0,0,0-11.4-2.638" transform="translate(-1536.1 -2127.297)" fill="none" stroke="#ffcf2d" stroke-miterlimit="10" stroke-width="5"/>
            <line id="Line_10" data-name="Line 10" x1="23.375" y1="19.601" transform="translate(3.206 64.57)" fill="none" stroke="#ffcf2d" stroke-miterlimit="10" stroke-width="5"/>
            <line id="Line_11" data-name="Line 11" x2="27.311" transform="translate(59.533 143.501)" fill="none" stroke="#ffcf2d" stroke-miterlimit="10" stroke-width="5"/>
          </g>
          <path id="Path_81" data-name="Path 81" d="M1721.453,2536.6v34.048a392.954,392.954,0,0,1-42.2,18.952c-21.508,8.238-42.408,14.041-59.249,17.044l9.74-37.984c10.795-5.194,22.888-10.389,35.671-15.259C1686.066,2545.528,1705.626,2539.765,1721.453,2536.6Z" transform="translate(-1561.563 -2350.321)" fill="#ffcf2d"/>
        </g>
      </g>
      <g id="CAP_3_" transform="translate(31.41)">
        <path id="Path_82" data-name="Path 82" d="M1773.256,1480l12.337,27.068a18.285,18.285,0,0,1-15.989,20.291h0a18.262,18.262,0,0,0-15.989,20.291l1.786,15.015" transform="translate(-1672.289 -1281.314)" fill="none" stroke="#ffcf2d" stroke-miterlimit="10" stroke-width="6"/>
        <path id="Path_83" data-name="Path 83" d="M1814.541,1114.539l65.011-101.453-223.6-1.786L1582.7,1206.334l120.932-5.681Z" transform="translate(-1570.81 -1002.819)" fill="#fe5244"/>
        <path id="Path_84" data-name="Path 84" d="M1864.821,993.038,1631.032,990.4,1553.4,1195.092" transform="translate(-1553.4 -990.4)" fill="none" stroke="#ffcf2d" stroke-miterlimit="10" stroke-width="6"/>
        <path id="Path_85" data-name="Path 85" d="M1925.259,1204.589c12.986,22.279-9.09,59.37-49.347,82.827s-83.394,24.389-96.381,2.11a27.174,27.174,0,0,1-3.409-9.861c-3.246-22.279,17.978-52.715,52.756-72.965s71.707-23.74,89.482-9.943A27.663,27.663,0,0,1,1925.259,1204.589Z" transform="translate(-1685.545 -1108.087)" fill="#66b0f0" stroke="#fff" stroke-miterlimit="10" stroke-width="6"/>
        <path id="Path_86" data-name="Path 86" d="M1899.877,1161.027l10.308,17.693a27.666,27.666,0,0,0-6.9-7.832c-17.775-13.8-54.7-10.307-89.482,9.942s-55.962,50.686-52.756,72.965a26.434,26.434,0,0,0,3.409,9.861l-10.308-17.694c-12.986-22.279,9.09-59.37,49.347-82.826C1843.713,1139.722,1886.891,1138.748,1899.877,1161.027Z" transform="translate(-1670.471 -1082.218)" fill="none" stroke="#fff" stroke-linecap="round" stroke-miterlimit="10" stroke-width="5"/>
        <path id="Path_87" data-name="Path 87" d="M1711.988,1750.95c-1.583,4.667-3.287,9.131-5.073,13.23a34.757,34.757,0,0,1-10.835-1.867,35.516,35.516,0,0,1-9.78-5.073c1.055-4.342,2.354-8.928,3.936-13.595,7.873-23.375,19.073-40.662,25.079-38.674C1721.322,1707,1719.82,1727.576,1711.988,1750.95Z" transform="translate(-1632.368 -1414.897)" fill="#ffcf2d"/>
        <circle id="Ellipse_17" data-name="Ellipse 17" cx="4.91" cy="4.91" r="4.91" transform="translate(78.849 280.336)" fill="none" stroke="#66b0f0" stroke-miterlimit="10" stroke-width="6"/>
      </g>
    </g>
    <g id="_x31__HAND__x26__CAP" transform="translate(793.225 574.961)">
      <g id="HAND" transform="translate(0 353.449)">
        <g id="DRESS_2_" transform="translate(0 342.782)">
          <path id="Path_88" data-name="Path 88" d="M976.354,2410.863v166.1H793.9V2332.5c3.571,11.972,41.758,36.929,89.157,57.788C933.5,2412.567,975.3,2421.738,976.354,2410.863Z" transform="translate(-793.626 -2321.358)" fill="#66b0f0"/>
          <path id="Path_89" data-name="Path 89" d="M975.952,2390.126c-1.1,10.876-42.854,1.664-93.3-20.575-47.4-20.9-85.586-45.857-89.157-57.788a5.1,5.1,0,0,1-.243-2.151c1.055-10.876,42.854-1.664,93.3,20.574S977.048,2379.25,975.952,2390.126Z" transform="translate(-793.225 -2305.045)" fill="#9a3b82"/>
        </g>
        <g id="HAND_1_" transform="translate(45.319 175)">
          <path id="Path_90" data-name="Path 90" d="M934.381,1906.209a25.948,25.948,0,0,1,23.334-14.609h28.691l1.5,115.332,20.007,106,6.371,33.682c-16.882-3.733-39.932-11.565-65.174-22.685-14.285-6.29-32.181-15.624-44.112-22.2V1961.4a16.469,16.469,0,0,1,1.015-5.6Z" transform="translate(-904.959 -1891.6)" fill="#a0505a"/>
          <path id="Path_91" data-name="Path 91" d="M1014.185,2402.648h0c-16.882-3.733-39.932-11.566-65.174-22.685-14.285-6.29-32.181-15.624-44.112-22.2V2322.5c13.026,4.18,32.3,11.16,48.008,18.059a449.566,449.566,0,0,1,54.947,28.407Z" transform="translate(-904.9 -2147.635)" fill="#73325a"/>
        </g>
        <g id="DIPLOMA" transform="translate(57.833 0)">
          <g id="Group_24" data-name="Group 24">
            <path id="Path_92" data-name="Path 92" d="M1139.359,1533.121,986.733,1813.944c-5.641,10.389-21.183,12.864-34.7,5.519s-19.885-21.711-14.244-32.14L1090.418,1506.5Z" transform="translate(-935.737 -1487.778)" fill="#fff" stroke="#ffcf2d" stroke-miterlimit="10" stroke-width="5"/>
            <ellipse id="Ellipse_18" data-name="Ellipse 18" cx="21.427" cy="27.839" rx="21.427" ry="27.839" transform="translate(144.444 37.651) rotate(-61.477)" fill="#66b0f0" stroke="#ffcf2d" stroke-miterlimit="10" stroke-width="5"/>
          </g>
          <path id="Path_93" data-name="Path 93" d="M1191.8,1750.784l72.113-58.884-1.136,20.94,23.091,5.763-52.593,32.465c14.122-2.435,31.126-4.423,45.126-3.328,16.679,1.3,11.079,20.818,4.829,37.5,14.609-1.421,63.591-31.085,82.056-25.485,11.281,3.409,7.224,26.419,3.977,39.12,4.707.244,28.529-.04,28.529-.04l-12.58,11.484,6.9,11.485c-26.784,1.177-27.108-3.044-23.74-22.036.568-20.656-22.32-.812-71.058,10.835-24.146,5.763-21.021-9.942-15.056-26.3-2.394-7.507-20.291-15.664-77.794-.649Z" transform="translate(-1087.886 -1597.94)" fill="#fe5244"/>
          <circle id="Ellipse_19" data-name="Ellipse 19" cx="21.305" cy="21.305" r="21.305" transform="translate(83.664 146.107)" fill="#fff" stroke="#fe5244" stroke-miterlimit="10" stroke-width="5"/>
        </g>
        <g id="FINGERS" transform="translate(88.296 175)">
          <path id="Path_94" data-name="Path 94" d="M1102.146,1891.6v1.339a24.706,24.706,0,0,1-24.714,24.714H1051.5V1891.6Z" transform="translate(-1034.984 -1891.6)" fill="#a0505a"/>
          <g id="Group_26" data-name="Group 26" transform="translate(0 38.349)">
            <path id="Path_95" data-name="Path 95" d="M1109.535,1997.787l-6.858,16.07-7.995,18.789-4.342,10.186-6.615,15.543a11.456,11.456,0,0,1-.609,1.217c0,.041-.041.041-.041.081a12.286,12.286,0,0,1-10.714,5.925H1019.81c-6.371,0-10.713-6.047-8.36-11.606l3.815-8.969,8.4-19.723,7.223-17,6.371-14.934a12.3,12.3,0,0,1,11.4-7.264h52.553C1107.547,1986.181,1111.889,1992.228,1109.535,1997.787Z" transform="translate(-1010.802 -1986.1)" fill="#a0505a"/>
            <g id="Group_25" data-name="Group 25" transform="translate(7.588 18.383)">
              <path id="Path_96" data-name="Path 96" d="M1065.7,2035.3a11.788,11.788,0,0,1,8.766-3.9h50.2a8.537,8.537,0,0,1,8.563,9.374" transform="translate(-1051.009 -2031.4)" fill="none" stroke="#73325a" stroke-linecap="round" stroke-miterlimit="10" stroke-width="5"/>
              <path id="Path_97" data-name="Path 97" d="M1048.9,2077.909a11.718,11.718,0,0,1,8.319-3.409h50.2a8.445,8.445,0,0,1,8.279,10.632" transform="translate(-1041.027 -2057.01)" fill="none" stroke="#73325a" stroke-linecap="round" stroke-miterlimit="10" stroke-width="5"/>
              <path id="Path_98" data-name="Path 98" d="M1029.5,2126.706a11.8,11.8,0,0,1,8.116-3.206h50.2a8.477,8.477,0,0,1,8.116,11.2h0" transform="translate(-1029.5 -2086.125)" fill="none" stroke="#73325a" stroke-linecap="round" stroke-miterlimit="10" stroke-width="5"/>
            </g>
          </g>
        </g>
      </g>
      <g id="CAP_2_" transform="translate(31.522 0)">
        <path id="Path_99" data-name="Path 99" d="M1442.92,837.183c3.369-3.612,6.737-6.98,10.064-9.983a35.162,35.162,0,0,1,9.131,6.169,36.164,36.164,0,0,1,6.818,8.644c-2.76,3.531-5.844,7.142-9.212,10.754-16.8,18.059-34.129,29.219-38.8,24.917C1416.3,873.381,1426.12,855.242,1442.92,837.183Z" transform="translate(-1197.038 -730.698)" fill="#ffcf2d"/>
        <path id="Path_100" data-name="Path 100" d="M1017.334,970.684l-5.357,3.328c-19.438,12.053-57.3-13.879-84.531-57.909-27.271-44.031-33.6-89.441-14.2-101.494l5.519-3.409,32.83,96.583Z" transform="translate(-889.381 -721.191)" fill="#66b0f0"/>
        <path id="Path_101" data-name="Path 101" d="M1053.232,896.367,998.853,844.3l-65.782-62.942-32.83-96.543L870.9,598.5l136.637,110.1Z" transform="translate(-870.9 -594.807)" fill="#66b0f0" stroke="#fff" stroke-miterlimit="10" stroke-width="6"/>
        <path id="Path_102" data-name="Path 102" d="M1061.711,885.806l-45.37-187.445L878,589.4" transform="translate(-875.119 -589.4)" fill="none" stroke="#9a3b82" stroke-miterlimit="10" stroke-width="6"/>
        <path id="Path_103" data-name="Path 103" d="M1141.19,956.687a26.943,26.943,0,0,1,19.844-32.506h0a26.881,26.881,0,0,1,31.938,17.9l11.4,36.807c6.29,20.372,35.63,18.789,39.729-2.151l6.574-33.8" transform="translate(-1031.052 -787.869)" fill="none" stroke="#ffcf2d" stroke-miterlimit="10" stroke-width="6"/>
        <circle id="Ellipse_20" data-name="Ellipse 20" cx="4.91" cy="4.91" r="4.91" transform="translate(216.258 146.174)" fill="none" stroke="#66b0f0" stroke-miterlimit="10" stroke-width="6"/>
      </g>
    </g>
  </g>
</svg>
