<svg width="48" height="35" viewBox="0 0 48 35" fill="none" xmlns="http://www.w3.org/2000/svg">
<path d="M10.3102 35C8.16832 34.4057 6.5528 33.425 5.4637 32.0581C4.38669 30.703 3.84818 28.9081 3.84818 26.6735V23.1253C3.84818 20.2369 2.56546 18.7927 0 18.7927V16.2073C2.56546 16.2073 3.84818 14.7691 3.84818 11.8925V8.1839C3.87239 6.00866 4.41089 4.25539 5.4637 2.9241C6.5286 1.58091 8.14411 0.606215 10.3102 0L11 2.05043C8.47085 2.84683 7.20627 4.92104 7.20627 8.27305V11.8747C7.20627 14.5729 6.19582 16.451 4.17492 17.5089C6.19582 18.5787 7.20627 20.4746 7.20627 23.1966V26.8696C7.24257 30.1384 8.50715 32.1651 11 32.9496L10.3102 35Z" fill="white"/>
<path d="M38.6271 35C40.5743 34.4057 42.0429 33.425 43.033 32.0581C44.0121 30.703 44.5016 28.9081 44.5016 26.6735V23.1253C44.5016 20.2369 45.6678 18.7927 48 18.7927V16.2073C45.6678 16.2073 44.5016 14.7691 44.5016 11.8925V8.1839C44.4796 6.00866 43.9901 4.25539 43.033 2.9241C42.0649 1.58091 40.5963 0.606215 38.6271 0L38 2.05043C40.2992 2.84683 41.4488 4.92104 41.4488 8.27305V11.8747C41.4488 14.5729 42.3674 16.451 44.2046 17.5089C42.3674 18.5787 41.4488 20.4746 41.4488 23.1966V26.8696C41.4158 30.1384 40.2662 32.1651 38 32.9496L38.6271 35Z" fill="white"/>
<path d="M13 9H19.7C20.8846 9 22.0207 9.47059 22.8584 10.3083C23.6961 11.1459 24.1667 12.282 24.1667 13.4667V29.1C24.1667 28.2115 23.8137 27.3594 23.1855 26.7312C22.5572 26.1029 21.7051 25.75 20.8167 25.75H13V9Z" stroke="white" stroke-width="2" stroke-linecap="round" stroke-linejoin="round"/>
<path d="M35.3334 9H28.6334C27.4487 9 26.3126 9.47059 25.4749 10.3083C24.6373 11.1459 24.1667 12.282 24.1667 13.4667V29.1C24.1667 28.2115 24.5196 27.3594 25.1479 26.7312C25.7761 26.1029 26.6282 25.75 27.5167 25.75H35.3334V9Z" stroke="white" stroke-width="2" stroke-linecap="round" stroke-linejoin="round"/>
</svg>
